HIERARCHY
ROOT Hips
{
	OFFSET 0.00000 0.00000 0.00000
	CHANNELS 6 Xposition Yposition Zposition Zrotation Yrotation Xrotation 
	JOINT LHipJoint
	{
		OFFSET 0 0 0
		CHANNELS 3 Zrotation Yrotation Xrotation
		JOINT LeftUpLeg
		{
			OFFSET 1.62964 -1.40469 0.78906
			CHANNELS 3 Zrotation Yrotation Xrotation
			JOINT LeftLeg
			{
				OFFSET 2.29640 -6.30932 0.00000
				CHANNELS 3 Zrotation Yrotation Xrotation
				JOINT LeftFoot
				{
					OFFSET 2.29451 -6.30412 0.00000
					CHANNELS 3 Zrotation Yrotation Xrotation
					JOINT LeftToeBase
					{
						OFFSET 0.03611 -0.09921 1.56387
						CHANNELS 3 Zrotation Yrotation Xrotation
						End Site
						{
							OFFSET 0.00000 -0.00000 0.80291
						}
					}
				}
			}
		}
	}
	JOINT RHipJoint
	{
		OFFSET 0 0 0
		CHANNELS 3 Zrotation Yrotation Xrotation
		JOINT RightUpLeg
		{
			OFFSET -1.73712 -1.40469 0.78906
			CHANNELS 3 Zrotation Yrotation Xrotation
			JOINT RightLeg
			{
				OFFSET -2.28137 -6.26801 0.00000
				CHANNELS 3 Zrotation Yrotation Xrotation
				JOINT RightFoot
				{
					OFFSET -2.28681 -6.28298 0.00000
					CHANNELS 3 Zrotation Yrotation Xrotation
					JOINT RightToeBase
					{
						OFFSET -0.15927 -0.43759 1.61103
						CHANNELS 3 Zrotation Yrotation Xrotation
						End Site
						{
							OFFSET -0.00000 -0.00000 0.84630
						}
					}
				}
			}
		}
	}
	JOINT LowerBack
	{
		OFFSET 0 0 0
		CHANNELS 3 Zrotation Yrotation Xrotation
		JOINT Spine
		{
			OFFSET -0.04227 2.04338 -0.00225
			CHANNELS 3 Zrotation Yrotation Xrotation
			JOINT Spine1
			{
				OFFSET -0.02148 2.04482 -0.04273
				CHANNELS 3 Zrotation Yrotation Xrotation
				JOINT Neck
				{
					OFFSET 0 0 0
					CHANNELS 3 Zrotation Yrotation Xrotation
					JOINT Neck1
					{
						OFFSET 0.09180 1.44629 0.19359
						CHANNELS 3 Zrotation Yrotation Xrotation
						JOINT Head
						{
							OFFSET 0.00887 1.40645 0.14750
							CHANNELS 3 Zrotation Yrotation Xrotation
							End Site
							{
								OFFSET -0.00669 1.50671 0.03707
							}
						}
					}
				}
				JOINT LeftShoulder
				{
					OFFSET 0 0 0
					CHANNELS 3 Zrotation Yrotation Xrotation
					JOINT LeftArm
					{
						OFFSET 2.17674 1.86763 -0.06520
						CHANNELS 3 Zrotation Yrotation Xrotation
						JOINT LeftForeArm
						{
							OFFSET 4.65776 -0.00000 0.00000
							CHANNELS 3 Zrotation Yrotation Xrotation
							JOINT LeftHand
							{
								OFFSET 3.55539 -0.00000 0.00000
								CHANNELS 3 Zrotation Yrotation Xrotation
								JOINT LeftFingerBase
								{
									OFFSET 0 0 0
									CHANNELS 3 Zrotation Yrotation Xrotation
									JOINT LeftHandIndex1
									{
										OFFSET 0.70726 -0.00000 0.00000
										CHANNELS 3 Zrotation Yrotation Xrotation
										End Site
										{
											OFFSET 0.57022 -0.00000 0.00000
										}
									}
								}
								JOINT LThumb
								{
									OFFSET 0 0 0
									CHANNELS 3 Zrotation Yrotation Xrotation
									End Site
									{
										OFFSET 0.57892 -0.00000 0.57892
									}
								}
							}
						}
					}
				}
				JOINT RightShoulder
				{
					OFFSET 0 0 0
					CHANNELS 3 Zrotation Yrotation Xrotation
					JOINT RightArm
					{
						OFFSET -2.80694 1.55459 -0.32496
						CHANNELS 3 Zrotation Yrotation Xrotation
						JOINT RightForeArm
						{
							OFFSET -4.71925 -0.00000 -0.00000
							CHANNELS 3 Zrotation Yrotation Xrotation
							JOINT RightHand
							{
								OFFSET -3.56990 -0.00000 0.00000
								CHANNELS 3 Zrotation Yrotation Xrotation
								JOINT RightFingerBase
								{
									OFFSET 0 0 0
									CHANNELS 3 Zrotation Yrotation Xrotation
									JOINT RightHandIndex1
									{
										OFFSET -0.50776 -0.00000 0.00000
										CHANNELS 3 Zrotation Yrotation Xrotation
										End Site
										{
											OFFSET -0.40937 -0.00000 0.00000
										}
									}
								}
								JOINT RThumb
								{
									OFFSET 0 0 0
									CHANNELS 3 Zrotation Yrotation Xrotation
									End Site
									{
										OFFSET -0.41562 -0.00000 0.41562
									}
								}
							}
						}
					}
				}
			}
		}
	}
}
MOTION
Frames: 6
Frame Time: .0083333
14.3961 16.7854 13.6660 177.4180 7.5394 -160.9340 0.0000 0.0000 0.0000 -5.2084 -16.5614 -41.2838 1.2943 7.2081 20.3333 0.0396 8.9636 6.9959 5.9479 -14.3777 -44.7723 0.0000 0.0000 0.0000 9.8041 9.0527 -2.4445 -6.0783 -14.5038 45.2952 -4.1998 21.5918 -38.0809 -2.8486 10.4458 -30.4328 -0.6791 -0.6996 -28.5853 1.9383 -0.7163 0.9692 2.2548 -0.3387 16.4320 0.0913 -0.0912 0.4936 -0.9427 1.8363 21.0164 -0.1451 1.5141 6.2969 0.0000 0.0000 0.0000 -81.2813 14.6822 13.8415 15.2536 -24.4982 -3.3304 -0.0000 0.0000 -1.7482 19.4886 -11.1476 -3.9141 -7.1250 0.0000 -0.0000 -5.3548 18.2033 3.4291 0.0000 0.0000 0.0000 80.2817 -10.8875 17.2652 -43.4318 49.9767 -21.0308 0.0000 -0.0000 -11.7717 -13.2418 -54.9136 10.8993 7.1250 -0.0000 -0.0000 74.1326 -76.6356 -60.5321
14.3364 16.7251 13.5518 177.7200 7.4038 -160.6030 0.0000 0.0000 0.0000 -5.3878 -16.3100 -41.8051 1.4213 7.5391 21.3228 -0.0192 7.5210 4.8310 5.9844 -14.4132 -44.9192 0.0000 0.0000 0.0000 9.7584 9.0800 -2.4098 -6.1440 -14.5665 45.5571 -3.9477 22.3603 -37.1378 -2.7853 10.3392 -30.0821 -0.6975 -0.7271 -28.4953 1.9408 -0.7656 1.1025 2.2477 -0.3709 16.5508 0.1051 -0.1464 0.4423 -0.7206 1.6771 20.8408 -0.0873 1.4390 6.2465 -0.0000 0.0000 0.0000 -81.0885 14.1254 14.0023 14.8720 -23.9675 -3.1738 -0.0000 0.0000 -1.6185 19.5834 -10.6312 -3.7551 -7.1250 0.0000 -0.0000 -5.2801 18.7389 3.3180 -0.0000 0.0000 0.0000 80.4656 -10.6245 17.2735 -43.7819 50.1576 -21.2993 0.0000 -0.0000 -12.0588 -14.7540 -56.1650 12.3392 7.1250 -0.0000 -0.0000 79.5060 -77.3269 -66.4869
14.2768 16.6727 13.4487 177.8930 7.1640 -160.2870 0.0000 0.0000 0.0000 -5.6030 -16.2700 -42.5580 1.5997 7.9772 22.6448 -0.0420 6.3238 3.2093 6.0625 -14.4887 -45.2322 0.0000 0.0000 0.0000 9.6575 9.2192 -2.5280 -6.2875 -14.7013 46.1249 -3.7886 22.6827 -36.5119 -2.8049 10.3724 -30.1913 -1.0597 -0.9009 -27.8234 2.0823 -0.8890 0.9073 2.5527 -0.4539 16.0069 0.1187 -0.2510 0.4529 -0.6913 1.5276 20.8552 -0.0880 1.3699 6.2482 0.0000 0.0000 0.0000 -81.1716 13.8387 13.8335 14.3295 -23.2038 -2.9567 -0.0000 0.0000 -0.8464 19.7189 -10.5903 -3.7688 -7.1250 0.0000 -0.0000 -5.1837 18.7718 3.2532 0.0000 0.0000 0.0000 80.4385 -10.8500 17.2199 -44.1365 50.3384 -21.5719 0.0000 -0.0000 -11.8638 -10.9458 -55.3590 9.0408 7.1250 -0.0000 -0.0000 76.3533 -75.8410 -61.7770
14.2170 16.6273 13.3564 178.0850 6.8285 -159.8360 0.0000 0.0000 0.0000 -5.6726 -16.3808 -43.5797 1.8079 8.4539 24.1015 -0.0488 5.4935 2.1035 5.8337 -14.2652 -44.3107 0.0000 0.0000 0.0000 9.6177 9.4397 -3.0041 -6.5060 -14.9014 46.9803 -3.6767 23.0937 -36.1131 -2.6441 10.0953 -29.2860 -1.4029 -1.1107 -27.2678 2.2615 -1.0793 0.7632 2.8648 -0.5669 15.5886 0.0062 -0.3925 0.5263 -0.5798 1.2685 20.5618 -0.0509 1.2281 6.1395 0.0000 0.0000 0.0000 -81.3309 13.3337 13.4445 13.7731 -22.4094 -2.7410 -0.0000 -0.0000 0.1512 19.8110 -10.6534 -3.8101 -7.1250 0.0000 -0.0000 -5.1196 18.6984 3.2210 0.0000 0.0000 0.0000 80.3655 -10.8921 17.2077 -44.4176 50.4800 -21.7886 0.0000 -0.0000 -11.3281 -15.7346 -57.6577 13.3890 7.1250 -0.0000 -0.0000 86.4993 -77.6447 -73.7887
14.1576 16.5896 13.2615 178.2660 6.3771 -159.4020 0.0000 0.0000 0.0000 -5.7175 -16.6778 -44.4732 2.0027 8.8717 25.3948 -0.0474 4.6840 1.1191 5.7562 -14.1878 -43.9951 0.0000 0.0000 0.0000 9.5550 9.2744 -3.0454 -6.4875 -14.8847 46.9083 -3.4443 23.4977 -35.1836 -2.4328 9.7147 -28.0578 -1.6271 -1.2788 -27.0643 2.3716 -1.2663 0.8824 3.0382 -0.6816 15.6512 -0.1151 -0.5788 0.4140 -0.3667 0.9202 20.3031 0.0165 1.0435 6.0736 -0.0000 0.0000 0.0000 -81.3935 12.5628 13.1171 13.3985 -21.8682 -2.5998 -0.0000 -0.0000 1.0375 19.8584 -10.7111 -3.8403 -7.1250 0.0000 -0.0000 -5.0870 18.6339 3.2076 -0.0000 0.0000 0.0000 80.4939 -10.4177 17.0794 -44.3204 50.4312 -21.7136 0.0000 -0.0000 -11.0500 -13.5647 -56.6593 11.3961 7.1250 -0.0000 -0.0000 81.6176 -76.9058 -68.1011
14.0993 16.5594 13.1632 178.3420 5.9260 -159.0470 0.0000 0.0000 0.0000 -5.8550 -17.0978 -45.1718 2.1789 9.2291 26.5147 -0.0415 3.8928 0.1243 5.7312 -14.1627 -43.8932 0.0000 0.0000 0.0000 9.4056 9.1787 -3.1105 -6.5195 -14.9135 47.0327 -3.2016 23.8773 -34.1960 -2.4336 9.7161 -28.0623 -1.8394 -1.3869 -27.1114 2.3552 -1.3792 1.2346 3.0942 -0.7729 16.1049 -0.0980 -0.6949 0.1271 -0.2085 0.6467 19.9652 0.0463 0.8910 6.0140 0.0000 0.0000 0.0000 -81.3150 11.5040 12.8389 13.2026 -21.5834 -2.5273 -0.0000 -0.0000 1.8513 19.6941 -10.6920 -3.7993 -7.1250 0.0000 -0.0000 -5.2028 18.6667 3.2774 0.0000 0.0000 0.0000 80.9752 -9.1603 16.6842 -43.5098 50.0172 -21.0906 0.0000 -0.0000 -10.8239 -8.0847 -54.8334 6.6237 7.1250 -0.0000 -0.0000 75.0532 -74.7003 -59.2430
